<svg width="134" height="148" viewBox="0 0 134 148" fill="none" xmlns="http://www.w3.org/2000/svg">
  <defs>
    <linearGradient id="glass_gradient" x1="0%" y1="0%" x2="100%" y2="100%">
      <stop offset="0%" style="stop-color:#ffffff;stop-opacity:0.6" />
      <stop offset="50%" style="stop-color:#ffffff;stop-opacity:0.3" />
      <stop offset="100%" style="stop-color:#ffffff;stop-opacity:0.1" />
    </linearGradient>
    <filter id="glass_blur" x="-50%" y="-50%" width="200%" height="200%">
      <feGaussianBlur in="SourceGraphic" stdDeviation="0.5" />
    </filter>
  </defs>
  <path d="M47 8.547C54.286 4.341 57.929 2.238 61.802 1.415C65.229 0.687 68.771 0.687 72.198 1.415C76.071 2.238 79.714 4.341 87 8.547L113.684 23.953C120.97 28.159 124.613 30.263 127.263 33.205C129.607 35.809 131.378 38.876 132.46 42.208C133.684 45.974 133.684 50.181 133.684 58.594V89.406C133.684 97.819 133.684 102.026 132.46 105.792C131.378 109.124 129.607 112.191 127.263 114.795C124.613 117.737 120.97 119.84 113.684 124.047L87 139.453C79.714 143.659 76.071 145.762 72.198 146.585C68.771 147.313 65.229 147.313 61.802 146.585C57.929 145.762 54.286 143.659 47 139.453L20.316 124.047C13.03 119.84 9.387 117.737 6.737 114.795C4.393 112.191 2.622 109.124 1.54 105.792C0.316 102.026 0.316 97.819 0.316 89.406V58.594C0.316 50.181 0.316 45.974 1.54 42.208C2.622 38.876 4.393 35.809 6.737 33.205C9.387 30.263 13.03 28.159 20.316 23.953L47 8.547Z"
        fill="url(#glass_gradient)"
        fill-opacity="0.85"
        stroke="#ffffff"
        stroke-opacity="0.3"
        stroke-width="1"/>
</svg>