<?xml version="1.0" encoding="UTF-8"?>
<svg xmlns="http://www.w3.org/2000/svg" width="720" height="560" viewBox="0 0 720 560">
  <defs>
    <linearGradient id="bg" x1="0%" y1="0%" x2="100%" y2="100%">
      <stop offset="0%" stop-color="#0d1020" />
      <stop offset="100%" stop-color="#161b35" />
    </linearGradient>
    <filter id="boardShadow" x="-20%" y="-20%" width="140%" height="140%">
      <feDropShadow dx="0" dy="25" stdDeviation="22" flood-color="#000" flood-opacity="0.35" />
    </filter>
    
    <filter id="pieceShadow0" x="-30%" y="-30%" width="160%" height="160%">
      <feDropShadow dx="0" dy="12" stdDeviation="10" flood-color="#0f172a" flood-opacity="0.45" />
    </filter>

    <filter id="pieceShadow1" x="-30%" y="-30%" width="160%" height="160%">
      <feDropShadow dx="0" dy="12" stdDeviation="10" flood-color="#0f172a" flood-opacity="0.45" />
    </filter>

    <filter id="pieceShadow2" x="-30%" y="-30%" width="160%" height="160%">
      <feDropShadow dx="0" dy="12" stdDeviation="10" flood-color="#0f172a" flood-opacity="0.45" />
    </filter>
  </defs>
  <rect width="100%" height="100%" fill="url(#bg)" />

  <g filter="url(#boardShadow)">
    <rect x="140" y="10" width="440" height="460" rx="40" fill="#11152a" fill-opacity="0.65" stroke="#94a3b8" stroke-opacity="0.12" stroke-width="1" />
    <g><polygon points="188.96,226.75 188.96,253.25 166.01,266.50 143.06,253.25 143.06,226.75 166.01,213.50" fill="#1b2141" fill-opacity="0.75" stroke="#1f2547" stroke-width="2" stroke-opacity="0.9"/><polygon points="213.21,268.75 213.21,295.25 190.26,308.50 167.31,295.25 167.31,268.75 190.26,255.50" fill="#1b2141" fill-opacity="0.75" stroke="#1f2547" stroke-width="2" stroke-opacity="0.9"/><polygon points="237.46,310.75 237.46,337.25 214.51,350.50 191.56,337.25 191.56,310.75 214.51,297.50" fill="#1b2141" fill-opacity="0.75" stroke="#1f2547" stroke-width="2" stroke-opacity="0.9"/><polygon points="261.71,352.75 261.71,379.25 238.76,392.50 215.81,379.25 215.81,352.75 238.76,339.50" fill="#1b2141" fill-opacity="0.75" stroke="#1f2547" stroke-width="2" stroke-opacity="0.9"/><polygon points="285.95,394.75 285.95,421.25 263.01,434.50 240.06,421.25 240.06,394.75 263.01,381.50" fill="#1b2141" fill-opacity="0.75" stroke="#1f2547" stroke-width="2" stroke-opacity="0.9"/><polygon points="213.21,184.75 213.21,211.25 190.26,224.50 167.31,211.25 167.31,184.75 190.26,171.50" fill="#1b2141" fill-opacity="0.75" stroke="#1f2547" stroke-width="2" stroke-opacity="0.9"/><polygon points="237.46,226.75 237.46,253.25 214.51,266.50 191.56,253.25 191.56,226.75 214.51,213.50" fill="#2563eb" fill-opacity="1" stroke="#1f2547" stroke-width="2" stroke-opacity="0.9"/><polygon points="261.71,268.75 261.71,295.25 238.76,308.50 215.81,295.25 215.81,268.75 238.76,255.50" fill="#2563eb" fill-opacity="1" stroke="#1f2547" stroke-width="2" stroke-opacity="0.9"/><polygon points="285.95,310.75 285.95,337.25 263.01,350.50 240.06,337.25 240.06,310.75 263.01,297.50" fill="#2563eb" fill-opacity="1" stroke="#1f2547" stroke-width="2" stroke-opacity="0.9"/><polygon points="310.20,352.75 310.20,379.25 287.25,392.50 264.30,379.25 264.30,352.75 287.25,339.50" fill="#1b2141" fill-opacity="0.75" stroke="#1f2547" stroke-width="2" stroke-opacity="0.9"/><polygon points="334.45,394.75 334.45,421.25 311.50,434.50 288.55,421.25 288.55,394.75 311.50,381.50" fill="#1b2141" fill-opacity="0.75" stroke="#1f2547" stroke-width="2" stroke-opacity="0.9"/><polygon points="237.46,142.75 237.46,169.25 214.51,182.50 191.56,169.25 191.56,142.75 214.51,129.50" fill="#2563eb" fill-opacity="1" stroke="#1f2547" stroke-width="2" stroke-opacity="0.9"/><polygon points="261.71,184.75 261.71,211.25 238.76,224.50 215.81,211.25 215.81,184.75 238.76,171.50" fill="#2563eb" fill-opacity="1" stroke="#1f2547" stroke-width="2" stroke-opacity="0.9"/><polygon points="285.95,226.75 285.95,253.25 263.01,266.50 240.06,253.25 240.06,226.75 263.01,213.50" fill="#2563eb" fill-opacity="1" stroke="#1f2547" stroke-width="2" stroke-opacity="0.9"/><polygon points="310.20,268.75 310.20,295.25 287.25,308.50 264.30,295.25 264.30,268.75 287.25,255.50" fill="#2563eb" fill-opacity="1" stroke="#1f2547" stroke-width="2" stroke-opacity="0.9"/><polygon points="334.45,310.75 334.45,337.25 311.50,350.50 288.55,337.25 288.55,310.75 311.50,297.50" fill="#2563eb" fill-opacity="1" stroke="#1f2547" stroke-width="2" stroke-opacity="0.9"/><polygon points="358.70,352.75 358.70,379.25 335.75,392.50 312.80,379.25 312.80,352.75 335.75,339.50" fill="#1b2141" fill-opacity="0.75" stroke="#1f2547" stroke-width="2" stroke-opacity="0.9"/><polygon points="382.95,394.75 382.95,421.25 360.00,434.50 337.05,421.25 337.05,394.75 360.00,381.50" fill="#1b2141" fill-opacity="0.75" stroke="#1f2547" stroke-width="2" stroke-opacity="0.9"/><polygon points="261.71,100.75 261.71,127.25 238.76,140.50 215.81,127.25 215.81,100.75 238.76,87.50" fill="#2563eb" fill-opacity="1" stroke="#1f2547" stroke-width="2" stroke-opacity="0.9"/><polygon points="285.95,142.75 285.95,169.25 263.01,182.50 240.06,169.25 240.06,142.75 263.01,129.50" fill="#2563eb" fill-opacity="1" stroke="#1f2547" stroke-width="2" stroke-opacity="0.9"/><polygon points="310.20,184.75 310.20,211.25 287.25,224.50 264.30,211.25 264.30,184.75 287.25,171.50" fill="#4f46e5" fill-opacity="1" stroke="#1f2547" stroke-width="2" stroke-opacity="0.9"/><polygon points="334.45,226.75 334.45,253.25 311.50,266.50 288.55,253.25 288.55,226.75 311.50,213.50" fill="#2563eb" fill-opacity="1" stroke="#1f2547" stroke-width="2" stroke-opacity="0.9"/><polygon points="358.70,268.75 358.70,295.25 335.75,308.50 312.80,295.25 312.80,268.75 335.75,255.50" fill="#2563eb" fill-opacity="1" stroke="#1f2547" stroke-width="2" stroke-opacity="0.9"/><polygon points="382.95,310.75 382.95,337.25 360.00,350.50 337.05,337.25 337.05,310.75 360.00,297.50" fill="#4f46e5" fill-opacity="1" stroke="#1f2547" stroke-width="2" stroke-opacity="0.9"/><polygon points="407.20,352.75 407.20,379.25 384.25,392.50 361.30,379.25 361.30,352.75 384.25,339.50" fill="#2563eb" fill-opacity="1" stroke="#1f2547" stroke-width="2" stroke-opacity="0.9"/><polygon points="431.45,394.75 431.45,421.25 408.50,434.50 385.55,421.25 385.55,394.75 408.50,381.50" fill="#1b2141" fill-opacity="0.75" stroke="#1f2547" stroke-width="2" stroke-opacity="0.9"/><polygon points="285.95,58.75 285.95,85.25 263.01,98.50 240.06,85.25 240.06,58.75 263.01,45.50" fill="#2563eb" fill-opacity="1" stroke="#1f2547" stroke-width="2" stroke-opacity="0.9"/><polygon points="310.20,100.75 310.20,127.25 287.25,140.50 264.30,127.25 264.30,100.75 287.25,87.50" fill="#2563eb" fill-opacity="1" stroke="#1f2547" stroke-width="2" stroke-opacity="0.9"/><polygon points="334.45,142.75 334.45,169.25 311.50,182.50 288.55,169.25 288.55,142.75 311.50,129.50" fill="#2563eb" fill-opacity="1" stroke="#1f2547" stroke-width="2" stroke-opacity="0.9"/><polygon points="358.70,184.75 358.70,211.25 335.75,224.50 312.80,211.25 312.80,184.75 335.75,171.50" fill="#4f46e5" fill-opacity="1" stroke="#1f2547" stroke-width="2" stroke-opacity="0.9"/><polygon points="382.95,226.75 382.95,253.25 360.00,266.50 337.05,253.25 337.05,226.75 360.00,213.50" fill="#2563eb" fill-opacity="1" stroke="#1f2547" stroke-width="2" stroke-opacity="0.9"/><polygon points="407.20,268.75 407.20,295.25 384.25,308.50 361.30,295.25 361.30,268.75 384.25,255.50" fill="#2563eb" fill-opacity="1" stroke="#1f2547" stroke-width="2" stroke-opacity="0.9"/><polygon points="431.45,310.75 431.45,337.25 408.50,350.50 385.55,337.25 385.55,310.75 408.50,297.50" fill="#4f46e5" fill-opacity="1" stroke="#1f2547" stroke-width="2" stroke-opacity="0.9"/><polygon points="455.70,352.75 455.70,379.25 432.75,392.50 409.80,379.25 409.80,352.75 432.75,339.50" fill="#2563eb" fill-opacity="1" stroke="#1f2547" stroke-width="2" stroke-opacity="0.9"/><polygon points="479.94,394.75 479.94,421.25 456.99,434.50 434.05,421.25 434.05,394.75 456.99,381.50" fill="#1b2141" fill-opacity="0.75" stroke="#1f2547" stroke-width="2" stroke-opacity="0.9"/><polygon points="334.45,58.75 334.45,85.25 311.50,98.50 288.55,85.25 288.55,58.75 311.50,45.50" fill="#2563eb" fill-opacity="1" stroke="#1f2547" stroke-width="2" stroke-opacity="0.9"/><polygon points="358.70,100.75 358.70,127.25 335.75,140.50 312.80,127.25 312.80,100.75 335.75,87.50" fill="#2563eb" fill-opacity="1" stroke="#1f2547" stroke-width="2" stroke-opacity="0.9"/><polygon points="382.95,142.75 382.95,169.25 360.00,182.50 337.05,169.25 337.05,142.75 360.00,129.50" fill="#2563eb" fill-opacity="1" stroke="#1f2547" stroke-width="2" stroke-opacity="0.9"/><polygon points="407.20,184.75 407.20,211.25 384.25,224.50 361.30,211.25 361.30,184.75 384.25,171.50" fill="#2563eb" fill-opacity="1" stroke="#1f2547" stroke-width="2" stroke-opacity="0.9"/><polygon points="431.45,226.75 431.45,253.25 408.50,266.50 385.55,253.25 385.55,226.75 408.50,213.50" fill="#4f46e5" fill-opacity="1" stroke="#1f2547" stroke-width="2" stroke-opacity="0.9"/><polygon points="455.70,268.75 455.70,295.25 432.75,308.50 409.80,295.25 409.80,268.75 432.75,255.50" fill="#2563eb" fill-opacity="1" stroke="#1f2547" stroke-width="2" stroke-opacity="0.9"/><polygon points="479.94,310.75 479.94,337.25 456.99,350.50 434.05,337.25 434.05,310.75 456.99,297.50" fill="#4f46e5" fill-opacity="1" stroke="#1f2547" stroke-width="2" stroke-opacity="0.9"/><polygon points="504.19,352.75 504.19,379.25 481.24,392.50 458.29,379.25 458.29,352.75 481.24,339.50" fill="#2563eb" fill-opacity="1" stroke="#1f2547" stroke-width="2" stroke-opacity="0.9"/><polygon points="382.95,58.75 382.95,85.25 360.00,98.50 337.05,85.25 337.05,58.75 360.00,45.50" fill="#1b2141" fill-opacity="0.75" stroke="#1f2547" stroke-width="2" stroke-opacity="0.9"/><polygon points="407.20,100.75 407.20,127.25 384.25,140.50 361.30,127.25 361.30,100.75 384.25,87.50" fill="#2563eb" fill-opacity="1" stroke="#1f2547" stroke-width="2" stroke-opacity="0.9"/><polygon points="431.45,142.75 431.45,169.25 408.50,182.50 385.55,169.25 385.55,142.75 408.50,129.50" fill="#1b2141" fill-opacity="0.75" stroke="#1f2547" stroke-width="2" stroke-opacity="0.9"/><polygon points="455.70,184.75 455.70,211.25 432.75,224.50 409.80,211.25 409.80,184.75 432.75,171.50" fill="#2563eb" fill-opacity="1" stroke="#1f2547" stroke-width="2" stroke-opacity="0.9"/><polygon points="479.94,226.75 479.94,253.25 456.99,266.50 434.05,253.25 434.05,226.75 456.99,213.50" fill="#2563eb" fill-opacity="1" stroke="#1f2547" stroke-width="2" stroke-opacity="0.9"/><polygon points="504.19,268.75 504.19,295.25 481.24,308.50 458.29,295.25 458.29,268.75 481.24,255.50" fill="#4f46e5" fill-opacity="1" stroke="#1f2547" stroke-width="2" stroke-opacity="0.9"/><polygon points="528.44,310.75 528.44,337.25 505.49,350.50 482.54,337.25 482.54,310.75 505.49,297.50" fill="#2563eb" fill-opacity="1" stroke="#1f2547" stroke-width="2" stroke-opacity="0.9"/><polygon points="431.45,58.75 431.45,85.25 408.50,98.50 385.55,85.25 385.55,58.75 408.50,45.50" fill="#1b2141" fill-opacity="0.75" stroke="#1f2547" stroke-width="2" stroke-opacity="0.9"/><polygon points="455.70,100.75 455.70,127.25 432.75,140.50 409.80,127.25 409.80,100.75 432.75,87.50" fill="#1b2141" fill-opacity="0.75" stroke="#1f2547" stroke-width="2" stroke-opacity="0.9"/><polygon points="479.94,142.75 479.94,169.25 456.99,182.50 434.05,169.25 434.05,142.75 456.99,129.50" fill="#1b2141" fill-opacity="0.75" stroke="#1f2547" stroke-width="2" stroke-opacity="0.9"/><polygon points="504.19,184.75 504.19,211.25 481.24,224.50 458.29,211.25 458.29,184.75 481.24,171.50" fill="#1b2141" fill-opacity="0.75" stroke="#1f2547" stroke-width="2" stroke-opacity="0.9"/><polygon points="528.44,226.75 528.44,253.25 505.49,266.50 482.54,253.25 482.54,226.75 505.49,213.50" fill="#1b2141" fill-opacity="0.75" stroke="#1f2547" stroke-width="2" stroke-opacity="0.9"/><polygon points="552.69,268.75 552.69,295.25 529.74,308.50 506.79,295.25 506.79,268.75 529.74,255.50" fill="#1b2141" fill-opacity="0.75" stroke="#1f2547" stroke-width="2" stroke-opacity="0.9"/><polygon points="479.94,58.75 479.94,85.25 456.99,98.50 434.05,85.25 434.05,58.75 456.99,45.50" fill="#1b2141" fill-opacity="0.75" stroke="#1f2547" stroke-width="2" stroke-opacity="0.9"/><polygon points="504.19,100.75 504.19,127.25 481.24,140.50 458.29,127.25 458.29,100.75 481.24,87.50" fill="#1b2141" fill-opacity="0.75" stroke="#1f2547" stroke-width="2" stroke-opacity="0.9"/><polygon points="528.44,142.75 528.44,169.25 505.49,182.50 482.54,169.25 482.54,142.75 505.49,129.50" fill="#1b2141" fill-opacity="0.75" stroke="#1f2547" stroke-width="2" stroke-opacity="0.9"/><polygon points="552.69,184.75 552.69,211.25 529.74,224.50 506.79,211.25 506.79,184.75 529.74,171.50" fill="#1b2141" fill-opacity="0.75" stroke="#1f2547" stroke-width="2" stroke-opacity="0.9"/><polygon points="576.94,226.75 576.94,253.25 553.99,266.50 531.04,253.25 531.04,226.75 553.99,213.50" fill="#1b2141" fill-opacity="0.75" stroke="#1f2547" stroke-width="2" stroke-opacity="0.9"/></g>
  </g>

  <g><g filter="url(#pieceShadow0)"><polygon points="221.65,387.50 221.65,412.50 200.00,425.00 178.35,412.50 178.35,387.50 200.00,375.00" fill="#f97316" stroke="#0f172a" stroke-width="2" stroke-opacity="0.45"/><polygon points="270.15,387.50 270.15,412.50 248.50,425.00 226.85,412.50 226.85,387.50 248.50,375.00" fill="#f97316" stroke="#0f172a" stroke-width="2" stroke-opacity="0.45"/><polygon points="245.90,429.50 245.90,454.50 224.25,467.00 202.60,454.50 202.60,429.50 224.25,417.00" fill="#f97316" stroke="#0f172a" stroke-width="2" stroke-opacity="0.45"/></g><g filter="url(#pieceShadow1)"><polygon points="441.65,387.50 441.65,412.50 420.00,425.00 398.35,412.50 398.35,387.50 420.00,375.00" fill="#a855f7" stroke="#0f172a" stroke-width="2" stroke-opacity="0.45"/><polygon points="465.90,429.50 465.90,454.50 444.25,467.00 422.60,454.50 422.60,429.50 444.25,417.00" fill="#a855f7" stroke="#0f172a" stroke-width="2" stroke-opacity="0.45"/><polygon points="490.15,471.50 490.15,496.50 468.50,509.00 446.85,496.50 446.85,471.50 468.50,459.00" fill="#a855f7" stroke="#0f172a" stroke-width="2" stroke-opacity="0.45"/><polygon points="441.65,471.50 441.65,496.50 420.00,509.00 398.35,496.50 398.35,471.50 420.00,459.00" fill="#a855f7" stroke="#0f172a" stroke-width="2" stroke-opacity="0.45"/></g><g filter="url(#pieceShadow2)"><polygon points="601.65,402.50 601.65,427.50 580.00,440.00 558.35,427.50 558.35,402.50 580.00,390.00" fill="#38bdf8" stroke="#0f172a" stroke-width="2" stroke-opacity="0.45"/><polygon points="650.15,402.50 650.15,427.50 628.50,440.00 606.85,427.50 606.85,402.50 628.50,390.00" fill="#38bdf8" stroke="#0f172a" stroke-width="2" stroke-opacity="0.45"/><polygon points="698.65,402.50 698.65,427.50 676.99,440.00 655.34,427.50 655.34,402.50 676.99,390.00" fill="#38bdf8" stroke="#0f172a" stroke-width="2" stroke-opacity="0.45"/><polygon points="674.40,444.50 674.40,469.50 652.75,482.00 631.10,469.50 631.10,444.50 652.75,432.00" fill="#38bdf8" stroke="#0f172a" stroke-width="2" stroke-opacity="0.45"/></g></g>

  <text x="360" y="68" fill="#f8faff" font-family="'Segoe UI', 'Inter', sans-serif" font-size="34" text-anchor="middle" font-weight="700">
    Fit the final pieces
  </text>
  <text x="360" y="108" fill="#cbd5f5" font-family="'Segoe UI', 'Inter', sans-serif" font-size="18" text-anchor="middle" font-weight="500">
    Drag the remaining tiles into place to win the board.
  </text>

  <g transform="translate(240, 480)">
    <rect width="240" height="52" rx="26" fill="#22d3ee" />
    <text x="120" y="34" fill="#04142a" font-family="'Segoe UI', 'Inter', sans-serif" font-size="20" text-anchor="middle" font-weight="700">
      Tap to play Hexomind
    </text>
  </g>
</svg>