<?xml version="1.0" encoding="UTF-8"?>
<svg width="256px" height="256px" viewBox="0 0 256 256" version="1.1" xmlns="http://www.w3.org/2000/svg" xmlns:xlink="http://www.w3.org/1999/xlink">
    <title>Hexagon - Fill</title>
    <defs>
        <linearGradient x1="50%" y1="13.0737305%" x2="93.1574929%" y2="68.4717062%" id="linearGradient-1">
            <stop stop-color="#CDCDCD" offset="0%"></stop>
            <stop stop-color="#CCCCCC" offset="55.102307%"></stop>
            <stop stop-color="#888484" offset="100%"></stop>
        </linearGradient>
        <path d="M78.9531924,0 L177.046808,1.42108547e-14 C186.304654,1.42108547e-14 194.864153,4.92276317 199.519864,12.924767 L248.392592,96.924767 C253.095183,105.007345 253.095183,114.992655 248.392592,123.075233 L199.519864,207.075233 C194.864153,215.077237 186.304654,220 177.046808,220 L78.9531924,220 C69.6953464,220 61.1358469,215.077237 56.4801356,207.075233 L7.60740831,123.075233 C2.90481735,114.992655 2.90481735,105.007345 7.60740831,96.924767 L56.4801356,12.924767 C61.1358469,4.92276317 69.6953464,7.10542736e-15 78.9531924,3.55271368e-15 Z" id="path-2"></path>
    </defs>
    <g id="Hexagon---Fill" stroke="none" stroke-width="1" fill="none" fill-rule="evenodd">
        <g id="Base" transform="translate(0, 18)">
            <use fill="url(#linearGradient-1)" xlink:href="#path-2"></use>
            <use fill="#FFFFFF" xlink:href="#path-2"></use>
        </g>
    </g>
</svg>