<?xml version="1.0" encoding="UTF-8"?>
<svg width="256px" height="256px" viewBox="0 0 256 256" version="1.1" xmlns="http://www.w3.org/2000/svg" xmlns:xlink="http://www.w3.org/1999/xlink">
    <title>Hexagon - Base</title>
    <defs>
        <linearGradient x1="50%" y1="13.0737305%" x2="93.1574929%" y2="68.4717062%" id="linearGradient-1">
            <stop stop-color="#26292E" offset="0%"></stop>
            <stop stop-color="#181B1F" offset="55.102307%"></stop>
            <stop stop-color="#15171B" offset="100%"></stop>
        </linearGradient>
        <linearGradient x1="40.0528302%" y1="37.6396492%" x2="94.5122513%" y2="94.528756%" id="linearGradient-2">
            <stop stop-color="#3B414A" offset="0%"></stop>
            <stop stop-color="#191C1F" offset="100%"></stop>
        </linearGradient>
        <linearGradient x1="67.5596013%" y1="31.7894957%" x2="4.56826572%" y2="39.5596782%" id="linearGradient-3">
            <stop stop-color="#1E2126" offset="0%"></stop>
            <stop stop-color="#323740" offset="100%"></stop>
        </linearGradient>
        <linearGradient x1="67.5596013%" y1="31.7894957%" x2="4.56826572%" y2="39.5596782%" id="linearGradient-4">
            <stop stop-color="#2C3138" offset="0%"></stop>
            <stop stop-color="#1E2227" offset="100%"></stop>
        </linearGradient>
        <linearGradient x1="52.4220478%" y1="62.8110042%" x2="80.9903705%" y2="9.53103637%" id="linearGradient-5">
            <stop stop-color="#111317" offset="0%"></stop>
            <stop stop-color="#393F48" offset="100%"></stop>
        </linearGradient>
        <linearGradient x1="50%" y1="31.1748399%" x2="50%" y2="90.4933287%" id="linearGradient-6">
            <stop stop-color="#0C0C0C" offset="0%"></stop>
            <stop stop-color="#0B0E12" offset="100%"></stop>
        </linearGradient>
        <linearGradient x1="50%" y1="31.1748399%" x2="50%" y2="90.4933287%" id="linearGradient-7">
            <stop stop-color="#090A0C" offset="0%"></stop>
            <stop stop-color="#191E24" offset="100%"></stop>
        </linearGradient>
    </defs>
    <g id="Hexagon---Base" stroke="none" stroke-width="1" fill="none" fill-rule="evenodd">
        <g id="Base" transform="translate(0, 18)">
            <path d="M78.9531924,0 L177.046808,1.42108547e-14 C186.304654,1.42108547e-14 194.864153,4.92276317 199.519864,12.924767 L248.392592,96.924767 C253.095183,105.007345 253.095183,114.992655 248.392592,123.075233 L199.519864,207.075233 C194.864153,215.077237 186.304654,220 177.046808,220 L78.9531924,220 C69.6953464,220 61.1358469,215.077237 56.4801356,207.075233 L7.60740831,123.075233 C2.90481735,114.992655 2.90481735,105.007345 7.60740831,96.924767 L56.4801356,12.924767 C61.1358469,4.92276317 69.6953464,7.10542736e-15 78.9531924,3.55271368e-15 Z" id="Outer" fill="url(#linearGradient-1)"></path>
            <path d="M78.9531924,7.5 L177.046808,7.5 C184.736928,7.5 191.919659,11.614527 195.896845,18.27633 L244.769573,102.27633 C248.853456,109.138383 248.853456,117.807618 244.769573,124.66967 L195.896845,208.66967 C191.919659,215.331473 184.736928,219.446 177.046808,219.446 L78.9531924,219.446 C71.2630721,219.446 64.0803407,215.331473 60.1031546,208.66967 L11.2304273,124.66967 C7.14654448,117.807618 7.14654448,109.138383 11.2304273,102.27633 L60.1031546,18.27633 C64.0803407,11.614527 71.2630721,7.5 78.9531924,7.5 Z" id="Edge" fill="url(#linearGradient-2)"></path>
            <path d="M87.8277095,32.3276962 L180.172291,32.3276962 C185.831623,32.3276962 191.19417,35.1670949 194.392973,39.8912908 L234.986045,100.218595 C238.263282,105.067607 238.263282,111.002393 234.986045,115.851405 L194.392973,176.178709 C191.19417,180.902905 185.831623,183.742304 180.172291,183.742304 L87.8277095,183.742304 C82.168377,183.742304 76.8058301,180.902905 73.607027,176.178709 L33.0139554,115.851405 C29.7367184,111.002393 29.7367184,105.067607 33.0139554,100.218595 L73.607027,39.8912908 C76.8058301,35.1670949 82.168377,32.3276962 87.8277095,32.3276962 Z" id="Inner" fill="url(#linearGradient-3)"></path>
            <path d="M180.172291,32.3276962 C185.02691,32.3276962 189.66978,34.5237598 192.812155,38.3443171 L195.177381,41.4136216 C192.074262,37.5378252 187.48979,35.2665311 182.642733,35.2665311 L90.5440253,35.2665311 C84.4760722,35.2665311 78.888292,38.5166743 75.7236423,43.6411369 L35.4351192,108.414669 C32.1770523,113.447196 32.1770523,119.622804 35.4351192,124.655331 L33.0139554,120.985432 C29.7367184,116.13642 29.7367184,110.201634 33.0139554,105.352622 L73.607027,45.025318 C76.8058301,40.3011221 82.168377,37.4617234 87.8277095,37.4617234 L180.172291,37.4617234 Z" id="Inner-Highlight" fill="url(#linearGradient-4)"></path>
            <path d="M177.046808,0 L78.9531924,0 C69.6953464,0 61.1358469,4.92276317 56.4801356,12.924767 L48.715202,26.3377853 C52.9487639,19.0518931 60.704978,14.4730929 69.0333537,14.4730929 L188.945888,14.4730929 C196.527294,14.4730929 203.635938,18.3108642 207.609514,24.8828831 L248.392592,96.924767 C253.095183,105.007345 253.095183,114.992655 248.392592,123.075233 L199.519864,207.075233 C195.037281,214.82006 186.871 220 177.93051,220 L185.726648,220 C194.984494,220 203.543993,215.077237 208.199704,207.075233 L257.072432,123.075233 C261.775023,114.992655 261.775023,105.007345 257.072432,96.924767 L208.199704,12.924767 C203.543993,4.92276317 194.984494,0 185.726648,0 Z" id="Outline" fill="url(#linearGradient-5)" opacity="0.4"></path>
            <path d="M87.8277095,47.3533351 L180.172291,47.3533351 C184.271322,47.3533351 188.051339,49.39783 190.276767,52.7756498 L224.889584,106.575575 C227.216505,110.09181 227.216505,114.68819 224.889584,118.204425 L190.276767,171.00435 C188.051339,174.38217 184.271322,176.426665 180.172291,176.426665 L87.8277095,176.426665 C83.728678,176.426665 79.9486611,174.38217 77.7232328,171.00435 L43.1104162,118.204425 C40.7834953,114.68819 40.7834953,110.09181 43.1104162,106.575575 L77.7232328,52.7756498 C79.9486611,49.39783 83.728678,47.3533351 87.8277095,47.3533351 Z" id="Core" fill="url(#linearGradient-6)"></path>
            <path d="M87.8277095,47.3533351 C83.728678,47.3533351 79.9486611,49.39783 77.7232328,52.7756498 L74.9454841,56.9488871 C77.2026621,53.4301819 81.0231395,51.374879 85.1631247,51.374879 L177.458019,51.374879 C181.55705,51.374879 185.337067,53.4193739 187.562495,56.7971937 L222.253344,109.713769 C224.580265,113.230004 224.580265,117.826384 222.253344,121.342619 L224.889584,117.304425 C227.216505,113.78819 227.216505,109.19181 224.889584,105.675575 L190.276767,52.8756498 C188.051339,49.49783 184.271322,47.4533351 180.172291,47.4533351 Z" id="Core-Highlight" fill="url(#linearGradient-7)"></path>
        </g>
    </g>
</svg>
