<?xml version="1.0" encoding="UTF-8"?>
<svg width="256px" height="256px" viewBox="0 0 256 256" version="1.1" xmlns="http://www.w3.org/2000/svg" xmlns:xlink="http://www.w3.org/1999/xlink">
    <title>Hexagon - Fill</title>
    <defs>
        <linearGradient x1="50%" y1="13.0737305%" x2="93.1574929%" y2="68.4717062%" id="linearGradient-1">
            <stop stop-color="#CDCDCD" offset="0%"></stop>
            <stop stop-color="#CCCCCC" offset="55.102307%"></stop>
            <stop stop-color="#888484" offset="100%"></stop>
        </linearGradient>
        <linearGradient x1="38.6238762%" y1="20.9131995%" x2="84.7340445%" y2="76.8442587%" id="linearGradient-2">
            <stop stop-color="#F0F0F0" offset="0%"></stop>
            <stop stop-color="#D3D2D2" offset="100%"></stop>
        </linearGradient>
    </defs>
    <g id="Hexagon---Fill" stroke="none" stroke-width="1" fill="none" fill-rule="evenodd">
        <g id="V3" transform="translate(0, 18)">
            <path d="M78.9531924,0 L177.046808,1.42108547e-14 C186.304654,1.42108547e-14 194.864153,4.92276317 199.519864,12.924767 L248.392592,96.924767 C253.095183,105.007345 253.095183,114.992655 248.392592,123.075233 L199.519864,207.075233 C194.864153,215.077237 186.304654,220 177.046808,220 L78.9531924,220 C69.6953464,220 61.1358469,215.077237 56.4801356,207.075233 L7.60740831,123.075233 C2.90481735,114.992655 2.90481735,105.007345 7.60740831,96.924767 L56.4801356,12.924767 C61.1358469,4.92276317 69.6953464,7.10542736e-15 78.9531924,3.55271368e-15 Z" id="Base" fill="url(#linearGradient-1)"></path>
            <g id="Group" transform="translate(14, 12)">
                <path d="M68.5525042,1.13686838e-13 L158.447496,1.31450406e-13 C165.752376,1.17239551e-13 172.503864,3.89213561 176.16451,10.2136027 L221.058856,87.7404027 C224.73377,94.0865111 224.73377,101.913489 221.058856,108.259597 L176.16451,185.786397 C172.503864,192.107864 165.752376,196 158.447496,196 L68.5525042,196 C61.2476242,196 54.4961358,192.107864 50.8354903,185.786397 L5.94114437,108.259597 C2.26622955,101.913489 2.26622955,94.0865111 5.94114437,87.7404027 L50.8354903,10.2136027 C54.4961358,3.89213561 61.2476242,1.24344979e-13 68.5525042,1.27897692e-13 Z" id="Inside" fill="url(#linearGradient-2)"></path>
                <path d="M158.447496,1.77635684e-14 C165.752376,3.55271368e-15 172.503864,3.89213561 176.16451,10.2136027 L178.743024,14.6646351 C174.894004,10.1944103 169.248546,7.55128205 163.229008,7.55128205 L73.9579394,7.55128205 C66.7867652,7.55128205 60.1383208,11.3033637 56.4316884,17.4423062 L10.0246233,94.3019126 C6.48165091,100.169801 6.12833652,107.383146 8.99172396,113.528085 L5.94114437,108.259597 C2.26622955,101.913489 2.26622955,94.0865111 5.94114437,87.7404027 L50.8354903,10.2136027 C54.4961358,3.89213561 61.2476242,1.0658141e-14 68.5525042,1.42108547e-14 L158.447496,1.77635684e-14 Z" id="Light" fill="#FFFFFF"></path>
            </g>
        </g>
    </g>
</svg>